<svg xmlns="http://www.w3.org/2000/svg" viewBox="0 0 800 460" role="img"><defs><linearGradient id="g" x1="0" y1="0" x2="1" y2="1"><stop stop-color="#ffb86b"/><stop offset="1" stop-color="#9d7df2"/></linearGradient><filter id="glow"><feGaussianBlur stdDeviation="8" result="b"/><feMerge><feMergeNode in="b"/><feMergeNode in="SourceGraphic"/></feMerge></filter></defs><rect width="800" height="460" rx="36" fill="#11182b"/><circle cx="680" cy="70" r="180" fill="url(#g)" opacity=".12"/><circle cx="120" cy="430" r="180" fill="url(#g)" opacity=".08"/><g fill="none" stroke="url(#g)" stroke-width="5"><path d="M105 270c65-155 125 155 190 0s125 155 190 0 125 155 190 0"/><path d="M120 170h130v75H120zM520 105h150v105H520z"/></g><g fill="#eef1ff"><path d="M170 130h30v40h-30zM550 155h25v55h-25zM605 130h25v80h-25z"/></g><circle cx="400" cy="270" r="60" fill="#18223c" stroke="url(#g)" stroke-width="6"/><path d="M370 270h60M400 240v60" stroke="url(#g)" stroke-width="8"/><text x="70" y="65" fill="#eef1ff" font-size="32" font-family="sans-serif" font-weight="700">Physics-guided memory</text><text x="70" y="405" fill="#aeb8d2" font-size="21" font-family="sans-serif">learned temporal structure anchored by physical knowledge</text></svg>